<svg xmlns="http://www.w3.org/2000/svg" viewBox="0 0 512 512">
  <rect width="512" height="512" rx="104" fill="#000000"/>
  <defs>
    <path id="memoireAppPetal" d="M256 220C236 194 196 176 181 139C167 104 184 72 217 67C237 64 250 75 256 88C262 75 275 64 295 67C328 72 345 104 331 139C316 176 276 194 256 220Z"/>
    <mask id="memoireAppFlowerMask" maskUnits="userSpaceOnUse">
      <rect width="512" height="512" fill="black"/>
      <use href="#memoireAppPetal" fill="white"/>
      <use href="#memoireAppPetal" fill="white" transform="rotate(90 256 256)"/>
      <use href="#memoireAppPetal" fill="white" transform="rotate(180 256 256)"/>
      <use href="#memoireAppPetal" fill="white" transform="rotate(270 256 256)"/>
      <path d="M256 204C264 232 280 248 308 256C280 264 264 280 256 308C248 280 232 264 204 256C232 248 248 232 256 204Z" fill="black"/>
      <g fill="black">
        <path d="M256 126C243 154 244 188 256 220C268 188 269 154 256 126Z"/>
        <circle cx="256" cy="145" r="15"/>
        <path d="M256 126C243 154 244 188 256 220C268 188 269 154 256 126Z" transform="rotate(90 256 256)"/>
        <circle cx="367" cy="256" r="15"/>
        <path d="M256 126C243 154 244 188 256 220C268 188 269 154 256 126Z" transform="rotate(180 256 256)"/>
        <circle cx="256" cy="367" r="15"/>
        <path d="M256 126C243 154 244 188 256 220C268 188 269 154 256 126Z" transform="rotate(270 256 256)"/>
        <circle cx="145" cy="256" r="15"/>
      </g>
    </mask>
    <linearGradient id="memoireAppSilver" x1="134" y1="78" x2="378" y2="430" gradientUnits="userSpaceOnUse">
      <stop stop-color="#ffffff"/>
      <stop offset="0.56" stop-color="#f6f6f2"/>
      <stop offset="1" stop-color="#c9c9c4"/>
    </linearGradient>
  </defs>
  <rect x="60" y="60" width="392" height="392" fill="url(#memoireAppSilver)" mask="url(#memoireAppFlowerMask)"/>
</svg>
