<svg xmlns="http://www.w3.org/2000/svg" viewBox="0 0 512 512">
  <defs>
    <path id="memiHeart" d="M0,80 C -28,64 -95,30 -95,-15 C -95,-52 -68,-78 -36,-78 C -16,-78 -2,-66 0,-45 C 2,-66 16,-78 36,-78 C 68,-78 95,-52 95,-15 C 95,30 28,64 0,80 Z"/>
    <linearGradient id="memiPetal" x1="0" y1="-78" x2="0" y2="80" gradientUnits="userSpaceOnUse">
      <stop offset="0" stop-color="#C75477"/>
      <stop offset="1" stop-color="#9D2F50"/>
    </linearGradient>
    <mask id="memiCut" maskUnits="userSpaceOnUse">
      <rect width="512" height="512" fill="#ffffff"/>
      <g fill="#000000">
        <rect x="252.5" y="106" width="7" height="142" rx="3.5" transform="rotate(0 256 256)"/>
        <rect x="252.5" y="106" width="7" height="142" rx="3.5" transform="rotate(90 256 256)"/>
        <rect x="252.5" y="106" width="7" height="142" rx="3.5" transform="rotate(180 256 256)"/>
        <rect x="252.5" y="106" width="7" height="142" rx="3.5" transform="rotate(270 256 256)"/>
        <rect x="253" y="46" width="6" height="190" rx="3" transform="rotate(45 256 256)"/>
        <rect x="253" y="46" width="6" height="190" rx="3" transform="rotate(135 256 256)"/>
        <rect x="253" y="46" width="6" height="190" rx="3" transform="rotate(225 256 256)"/>
        <rect x="253" y="46" width="6" height="190" rx="3" transform="rotate(315 256 256)"/>
      </g>
    </mask>
  </defs>
  <rect width="512" height="512" rx="104" fill="#F8F1EE"/>
  <g transform="translate(40.96 40.96) scale(0.84)" mask="url(#memiCut)">
    <use href="#memiHeart" fill="url(#memiPetal)" transform="translate(256 256) rotate(0) translate(0 -97)"/>
    <use href="#memiHeart" fill="url(#memiPetal)" transform="translate(256 256) rotate(90) translate(0 -97)"/>
    <use href="#memiHeart" fill="url(#memiPetal)" transform="translate(256 256) rotate(180) translate(0 -97)"/>
    <use href="#memiHeart" fill="url(#memiPetal)" transform="translate(256 256) rotate(270) translate(0 -97)"/>
  </g>
</svg>
